<svg width="400" height="250" viewBox="0 0 400 250" fill="none" xmlns="http://www.w3.org/2000/svg">
<path d="M0 154.43H52.8242V165.388H0V154.43ZM382.012 119.255L398.667 100.879H386.255L372.606 116.152V100.879H362.715V139.497H372.655V123.23L387.249 139.497H400L382.012 119.255ZM58.6424 121.8C58.3758 129.073 57.4545 130.455 53.4303 130.455V139.521H54.9333C65.0424 139.521 67.4424 134.309 67.8061 122.697L68.2424 109.848H77.5758V139.497H87.4667V100.879H59.3212L58.6424 121.8ZM15.7091 128.442H36.5576L40.0242 139.497H51.5879L36 93.0485C34.497 88.5636 32.7515 85 26.7879 85C20.8242 85 19.0061 88.5636 17.4061 93.0485L1.06667 139.497H11.9273L15.7091 128.442V128.442ZM26.2788 97.1212H26.5455L33.5273 119.133H18.8364L26.2788 97.1212ZM257.333 106.358H246.303V95.4485H271.903V85.7515H235.927V139.497H257.333C269.188 139.497 276 133.582 276 122.77C276 112.515 269.091 106.358 257.333 106.358V106.358ZM256.824 129.776H246.303V115.812H256.824C262.303 115.812 265.382 118.236 265.382 122.794C265.382 127.352 262.303 129.776 256.824 129.776ZM159.006 99.9818V85.6788H149.139V99.9818C143.959 100.153 139.057 102.373 135.512 106.154C131.967 109.936 130.067 114.97 130.23 120.152C130.054 125.343 131.947 130.392 135.493 134.189C139.039 137.985 143.948 140.217 149.139 140.394V154.939H159.03V140.394C161.602 140.309 164.132 139.719 166.475 138.655C168.818 137.591 170.928 136.076 172.684 134.196C174.441 132.315 175.809 130.107 176.711 127.697C177.613 125.287 178.03 122.723 177.939 120.152C178.043 117.578 177.633 115.01 176.734 112.598C175.835 110.184 174.464 107.975 172.701 106.097C170.939 104.22 168.82 102.712 166.469 101.662C164.117 100.612 161.581 100.041 159.006 99.9818V99.9818ZM149.164 131.061C146.546 130.773 144.146 129.468 142.482 127.427C140.817 125.387 140.022 122.774 140.267 120.152C140.053 117.536 140.86 114.939 142.519 112.906C144.177 110.872 146.559 109.56 149.164 109.242V131.061ZM159.055 131.061V109.242C161.659 109.56 164.041 110.872 165.699 112.906C167.358 114.939 168.165 117.536 167.952 120.152C168.184 122.771 167.383 125.377 165.721 127.415C164.059 129.453 161.667 130.761 159.055 131.061ZM215.006 127.642V114.624C215.006 105.121 208.97 99.1818 198.836 99.1818C188.703 99.1818 182.788 105.485 182.303 112.055H192.315C192.655 110.648 194.158 108.152 198.812 108.152C199.682 108.04 200.565 108.131 201.392 108.42C202.221 108.708 202.97 109.185 203.581 109.813C204.192 110.441 204.65 111.203 204.916 112.038C205.183 112.873 205.251 113.758 205.115 114.624H195.418C186.642 114.624 181.43 119.255 181.43 126.915C181.362 128.743 181.678 130.565 182.358 132.264C183.039 133.962 184.068 135.498 185.38 136.773C186.691 138.048 188.256 139.034 189.973 139.666C191.69 140.298 193.52 140.562 195.345 140.442C197.406 140.551 199.462 140.15 201.331 139.274C203.2 138.399 204.824 137.077 206.061 135.424C206.865 136.785 208.039 137.89 209.447 138.611C210.853 139.332 212.436 139.639 214.012 139.497H217.43V130.576C215.758 130.576 215.006 129.776 215.006 127.642V127.642ZM205.115 125.218C205.156 126.173 204.994 127.126 204.638 128.013C204.284 128.901 203.745 129.703 203.059 130.368C202.371 131.032 201.552 131.543 200.652 131.867C199.753 132.191 198.795 132.321 197.842 132.248C194.279 132.248 191.467 130.964 191.467 127.109C191.467 123.255 194.594 122.697 197.236 122.697H205.115V125.218V125.218ZM112.097 112.612H104.994V100.879H95.103V139.497H112.267C123.006 139.497 126.812 132.515 126.812 125.921C126.861 117.412 121.527 112.612 112.097 112.612ZM111.37 131.061H104.994V121.364H111.37C114.788 121.364 116.848 122.915 116.848 126.212C116.848 129.509 114.885 131.061 111.37 131.061V131.061ZM313.745 127.642V114.624C313.745 105.121 307.709 99.1818 297.576 99.1818C287.442 99.1818 281.527 105.485 281.042 112.055H291.055C291.394 110.648 292.897 108.152 297.552 108.152C298.422 108.04 299.304 108.131 300.131 108.42C300.96 108.708 301.709 109.185 302.32 109.813C302.931 110.441 303.389 111.203 303.656 112.038C303.922 112.873 303.99 113.758 303.855 114.624H294.158C285.382 114.624 280.17 119.255 280.17 126.915C280.102 128.743 280.417 130.565 281.098 132.264C281.777 133.962 282.807 135.498 284.119 136.773C285.43 138.048 286.996 139.034 288.713 139.666C290.429 140.298 292.259 140.562 294.085 140.442C296.165 140.571 298.245 140.18 300.138 139.304C302.029 138.428 303.673 137.095 304.921 135.424C305.714 136.762 306.865 137.851 308.245 138.571C309.624 139.29 311.176 139.611 312.727 139.497H316.145V130.576C314.424 130.576 313.745 129.776 313.745 127.642ZM303.903 125.218C303.939 126.172 303.775 127.123 303.418 128.009C303.062 128.895 302.524 129.695 301.838 130.359C301.152 131.022 300.332 131.533 299.435 131.859C298.538 132.185 297.583 132.317 296.63 132.248C293.067 132.248 290.255 130.964 290.255 127.109C290.255 123.255 293.382 122.697 296.024 122.697H303.903V125.218V125.218ZM345.333 115.255H331.685V100.879H321.794V139.521H331.685V124.297H345.333V139.497H355.224V100.879H345.333V115.255Z" fill="#EF3124"/>
</svg>
