<svg width="400" height="250" fill="none" xmlns="http://www.w3.org/2000/svg"><path d="M102.256 175.657h-5.912v-17.384h10.26v1.738H98.43v5.563h3.826c3.479 0 5.739 1.391 5.739 4.868v.174c0 3.303-2.26 5.041-5.739 5.041zm0-1.564c2.609 0 3.652-1.217 3.652-3.303v-.174c0-2.086-1.217-3.303-3.825-3.303H98.43v6.78h3.826zM109.908 172.18c0-2.955 3.131-3.998 6.435-3.998h1.913v-.869c0-2.086-.696-2.956-2.783-2.956-1.739 0-2.782.696-2.956 2.26h-2.087c.348-2.955 2.609-3.998 5.043-3.998 2.435 0 4.696 1.043 4.696 4.52v8.345h-2.087v-1.565c-.87 1.217-2.087 1.912-4 1.912-2.261 0-4.174-1.043-4.174-3.651zm8.348-.869v-1.564h-1.739c-2.609 0-4.348.695-4.348 2.433 0 1.391.696 2.087 2.435 2.087 1.913 0 3.652-1.043 3.652-2.956zM131.82 170.094h-6.26v5.737h-2.087V163.14h2.087v5.39h6.26v-5.39h2.087v12.691h-2.087v-5.737zM139.472 169.225v6.432h-2.087v-12.69h2.087v5.91l5.217-5.91h2.435l-5.391 5.91 5.913 6.78h-2.435l-5.739-6.432z" fill="#000"/><path d="M37.737 75C16.87 75 0 91.863 0 112.725c0 20.861 16.869 37.725 37.737 37.725 20.87 0 37.738-16.864 37.738-37.725C75.301 91.863 58.432 75 37.738 75zm-5.39 53.719l-2.783 8.171c-10.434-3.477-17.39-13.387-17.39-24.513 0-11.126 6.956-20.861 17.564-24.512l2.782 8.17c-6.956 2.26-11.477 8.867-11.477 16.168-.174 7.823 4.347 14.256 11.303 16.516zm12.868 8.518l-2.608-8.344c7.13-2.26 11.825-8.867 11.825-16.342 0-7.475-4.695-13.908-11.651-16.168l2.782-8.344c10.608 3.477 17.739 13.386 17.739 24.512 0 11.3-7.304 21.209-18.087 24.686z" fill="#00BEF0"/><path d="M383.114 119.505l4.174 5.041c-4.348 4.52-9.739 5.737-14.087 5.737-4.174 0-7.13-.695-9.738-1.912-5.565-2.782-8.348-8.345-8.348-15.125 0-10.257 6.956-17.906 17.217-17.906 11.477 0 17.042 8.519 16.173 19.645h-26.086c.174 2.781 1.739 5.389 4 6.78 1.913 1.217 4.174 1.738 7.13 1.738 3.304 0 6.608-1.043 9.565-3.998zM362.767 108.9h18.434c-.522-3.998-3.826-7.475-9.043-7.475-5.565.174-8.869 3.824-9.391 7.475zM187.47 129.414h9.391l-14.782-17.211 14.608-16.168h-9.217L176.34 108.9h-3.304V96.035h-7.13v33.205h7.13v-13.212h3.304l11.13 13.386zm30.781-27.294c-6.086 0-10.086 4.694-10.086 10.605 0 5.911 4 10.604 10.086 10.604 6.087 0 9.913-4.52 9.913-10.604 0-5.911-3.652-10.605-9.913-10.605zm1.218-6.78c9.391 0 16.347 7.302 16.347 17.385 0 9.909-6.782 17.558-16.347 17.558-4.522 0-8.174-1.564-10.782-4.346v17.385h-7.304V96.035h7.13v3.999c2.782-3.303 6.26-4.694 10.956-4.694zm94.604.695h-29.737v6.607h11.303v26.598h7.304v-26.424h11.304v-6.78h-.174zm-153.21 0h-29.738v6.607h11.304v26.598h7.304v-26.424h11.304v-6.78h-.174zm-38.607 16.69c0-6.259-4.348-10.779-10.435-10.779-5.912 0-10.434 4.52-10.434 10.779 0 6.258 4.348 10.778 10.434 10.778 5.913 0 10.435-4.52 10.435-10.778zm-28.173 0c0-9.909 7.652-17.385 17.912-17.385 10.087 0 17.912 7.476 17.912 17.385 0 9.909-7.651 17.558-17.912 17.558-10.26 0-17.912-7.649-17.912-17.558zm255.293-16.69v33.205h-7.13v-21.383l-17.391 21.383h-5.738V96.035h7.13v21.558l17.39-21.384h5.739v-.174zm-69.91 33.379h-7.13V96.036h7.13v33.378zm-18.608-11.474c0-2.955-2.087-5.041-4.869-5.041h-7.304v10.257h7.304c2.782 0 4.869-2.087 4.869-5.216zm7.304 0c0 6.606-4.869 11.3-11.825 11.3h-14.782V96.035h7.13v10.779h8.173c6.957 0 11.304 4.52 11.304 11.126z" fill="#000"/></svg>