<svg width="400" height="250" viewBox="0 0 400 250" fill="none" xmlns="http://www.w3.org/2000/svg">
<path d="M374.6 105.9H383V119.3H384.8L389.6 105.9H398.7L392.2 123.6L399.6 143.2H389.8L385 128.2H383V143.2H374.6V105.9ZM346.4 105.9H354.7V119.4H360.7V105.9H369V143.3H360.7V128.3H354.7V143.3H346.4V105.9ZM317.3 143.3H326L327 136.8H333L334 143.3H342.7L335.4 105.9H324.7L317.3 143.3ZM330 117.2L331.6 128.6H328.4L330 117.2ZM294.1 143.3H304.2C306.4 143.3 315.6 142.3 315.7 131C315.7 121.5 308.6 119.8 303.9 119.8H302.4V114.8H313.7V105.8H294.1V143.3ZM302.4 135.7V127.2H303.6C304.6 127.2 307.3 127.2 307.3 131.1C307.3 135 304.6 135.7 303.6 135.7H302.4ZM261 105.9H268.2L274.6 114.7L281.1 105.9H288.3V143.3H279.8V120.5L274.7 127L269.6 120.5V143.3H261V105.9ZM243.4 143.7C253.5 143.7 256.9 134.1 256.9 124.5C256.9 114.9 253.5 105.3 243.4 105.3C233.3 105.3 229.9 114.9 229.9 124.5C229.9 134.1 233.3 143.7 243.4 143.7ZM243.4 134.6C240.4 134.6 238.9 131 238.9 124.5C238.9 117.9 240.4 114.4 243.4 114.4C246.4 114.4 247.9 118 247.9 124.5C248 131.1 246.4 134.6 243.4 134.6ZM205.2 143.3H213.7V130.9H216.6C225 130.9 227.6 123.2 227.6 118.3C227.6 113.5 224.6 105.9 216.6 105.9H205.2V143.3ZM213.8 114.1H215.8C217.7 114.1 219 115.3 219 118.4C219 122.4 216.9 122.7 215.8 122.7H213.8V114.1ZM177.1 105.9H200.4V143.3H191.9V114.9H185.7V143.3H177.2V105.9H177.1ZM159.6 120.4C161 120.4 163.5 119.5 163.5 116.7C163.5 113.4 160.6 113.2 159.8 113.2C158.8 113.2 156.9 113.4 155.1 114.3L155 106.2C157.9 105.5 160 105.2 162.4 105.2C169.4 105.2 172.5 110.2 172.5 115C172.5 119.7 169.8 122.6 167.2 123.7V124.1C169.7 124.9 173.1 127.4 173.1 133.1C173.1 140.2 168.3 144.1 162.1 144.1C158.8 144.1 156.6 143.6 154 142.2L154.2 134.4C156.6 135.5 158.2 135.6 159.9 135.6C162.7 135.6 163.7 133.5 163.7 132C163.7 129.9 162.4 128.5 159.5 128.5H156V120.5H159.6V120.4ZM126.1 143.3H134.7L135.8 136.8H141.8L142.8 143.3H151.4L144.1 105.9H133.4L126.1 143.3ZM138.8 117.1L140.4 128.5H137.1L138.8 117.1ZM109.6 105.9H127.1V115.2H118.3V143.3H109.6V105.9Z" fill="#162E89"/>
<path d="M3.2 125C3.2 148 21.6 166.7 44.3 166.7C66.9 166.7 85.3 148 85.3 125C85.3 102 66.9 83.2 44.3 83.2C21.6 83.2 3.2 101.9 3.2 125ZM1 125C1 100.7 20.4 81 44.3 81C68.1 81 87.5 100.7 87.5 125C87.5 149.2 68.1 168.9 44.3 168.9C20.4 168.9 1 149.2 1 125Z" fill="#162E89"/>
<path d="M31.3999 97.2C29.8999 97.9 28.4999 98.7 27.1999 99.6C37.3999 95 49.9999 95.3 56.6999 98.4C58.7999 99.4 60.1999 100 60.8999 101.2C53.8999 99.3 50.8999 98.9 44.9999 99.1C36.6999 99.3 25.5999 102.6 21.2999 105.2L19.3999 107.6C25.4999 103.9 36.8999 101.5 43.1999 101.3C50.1999 101.2 55.6999 101.9 60.6999 103.7C60.3999 105 59.7999 105.7 58.6999 106.3C38.5999 102.7 26.6999 106.9 15.9999 114.1L15.1999 116.5C27.1999 108.1 41.7999 105.8 55.9999 108.3C51.0999 110 44.9999 110.4 39.8999 111.6C35.5999 112.6 33.1999 112.9 27.4999 114.9C21.5999 116.9 18.1999 118.9 15.9999 121.4C14.9999 122.6 14.1999 124 13.9999 125.5C13.8999 126.4 13.9999 127.2 14.2999 128C14.4999 128.7 15.0999 129.4 15.6999 130.1C14.9999 131.3 14.3999 132.9 15.3999 134.7C15.7999 135.5 16.9999 136.4 18.0999 137.2L17.7999 138.1C17.6999 139.2 17.4999 140.4 18.1999 141.5C19.3999 143.4 20.7999 144.7 23.0999 145.9C23.3999 147.5 23.9999 148.7 25.1999 149.8C27.6999 152.2 33.2999 156.7 43.2999 157.4C50.7999 157.9 56.1999 155.6 58.1999 154.6L60.6999 153.3C56.4999 155 49.4999 156 43.6999 155.5C35.2999 154.8 27.7999 149.2 26.8999 147.6C27.1999 147.8 27.5999 148 27.8999 148.1C37.6999 152.9 50.3999 155.5 66.5999 148.8L67.8999 147.5C52.9999 152 40.0999 151.9 26.2999 144.5C26.4999 143.8 26.6999 143.2 27.3999 142.7C30.8999 144.3 34.2999 145.6 38.4999 146.5C43.2999 147.4 48.7999 147.6 53.3999 147.4C57.9999 147.2 66.9999 144.9 71.2999 142.6C71.6999 142.2 71.8999 141.7 72.2999 141.2C63.8999 144.3 53.9999 145.8 47.9999 145.3C42.0999 144.9 36.8999 144.1 29.9999 140.9C31.2999 140.4 32.6999 139.9 34.0999 139.5C38.5999 140.9 43.2999 141.8 48.6999 142C54.0999 142.2 66.7999 140.2 74.7999 135.3C75.0999 134.6 75.2999 133.8 75.2999 133.8C75.2999 133.8 64.1999 139.8 51.6999 139.8C45.7999 139.8 42.1999 138.9 39.5999 138.3C45.4999 137.2 52.8999 136.3 61.2999 134.1C65.4999 133 70.7999 130.5 73.0999 128.4C75.0999 126.5 76.6999 124.1 76.1999 121.7C76.0999 121 75.1999 119.5 74.0999 118.9C75.0999 117.5 74.9999 116.4 74.8999 115.4C74.7999 114.6 74.4999 113.8 73.9999 113C73.2999 112.1 72.6999 111.4 71.2999 110.6C71.4999 109.5 71.3999 108.5 70.8999 107.5C69.8999 105.7 67.9999 104.1 64.7999 102.5C64.6999 101.8 64.2999 101 63.5999 100.1C59.5999 96 52.9999 94.1 47.3999 94C47.0999 94 46.7999 94 46.4999 94C39.7999 94.2 34.5999 95.7 31.3999 97.2ZM62.8999 107.2C63.3999 106.6 64.0999 105.8 64.2999 105.1C65.6999 106 67.2999 107.4 67.4999 108.8C65.9999 108.2 64.3999 107.6 62.8999 107.2ZM64.0999 113.3C61.6999 112.6 59.6999 111.8 56.8999 111.3C58.5999 110.6 59.6999 109.9 60.6999 109.1C62.8999 109.7 64.9999 110.5 66.6999 111.2C66.3999 111.8 64.6999 113.4 64.0999 113.3C64.0999 113.4 64.1999 113.4 64.0999 113.3ZM68.3999 115.1C68.9999 114.6 69.5999 114.1 70.1999 113.4C71.4999 114.6 71.8999 115.4 71.2999 116.6C70.3999 116 69.3999 115.6 68.3999 115.1ZM17.7999 127.5C14.0999 122.4 26.7999 118.7 29.1999 118C35.3999 116.1 42.5999 114.7 49.0999 113.9C53.5999 113.3 55.8999 113.9 60.1999 115C49.2999 118 38.5999 118.9 28.2999 122C19.9999 124.5 17.7999 127.5 17.7999 127.5ZM20.4999 130C24.2999 126.7 32.1999 124.8 34.9999 124.2C44.0999 122.2 52.5999 120.9 56.0999 120C60.2999 118.9 63.2999 117.9 65.3999 116.9C65.4999 116.7 68.7999 118.4 69.1999 118.8C68.0999 119.8 66.4999 120.6 64.7999 121.2C59.5999 123.1 50.1999 125.1 45.1999 125.9C40.1999 126.7 35.9999 127.4 30.3999 128.9C27.1999 129.8 24.9999 130.8 23.3999 131.8C22.2999 131.1 21.5999 130.9 20.4999 130ZM27.6999 134C29.2999 133.3 31.0999 132.7 32.7999 132.3C41.4999 130.1 49.0999 129.7 59.6999 126.8C64.7999 125.4 68.4999 124 70.7999 122.2C71.0999 121.9 71.4999 121.6 71.7999 121.3C74.8999 126.1 63.3999 129.8 55.4999 131.5C51.3999 132.3 47.2999 133.1 43.1999 133.8C38.0999 134.7 36.3999 135.1 32.8999 136.2C31.0999 135.6 29.2999 134.9 27.6999 134ZM18.3999 132.5C19.1999 133 19.7999 133.4 20.6999 133.9C20.3999 134.2 19.8999 134.5 19.5999 134.9C18.7999 134.4 18.0999 133.4 18.3999 132.5ZM22.4999 137.1C22.9999 136.6 23.5999 136.2 24.2999 135.8C25.7999 136.5 27.2999 137.1 28.6999 137.8C27.6999 138.2 26.7999 138.6 25.8999 139.2C24.8999 138.5 23.6999 137.8 22.4999 137.1ZM21.2999 139.6C22.0999 140.2 22.9999 140.6 23.7999 141.1C23.4999 141.6 23.1999 142 23.0999 142.5C21.7999 141.4 21.1999 140.5 21.2999 139.6Z" fill="#162E89"/>
</svg>
