<svg width="400" height="250" viewBox="0 0 400 250" fill="none" xmlns="http://www.w3.org/2000/svg">
<path d="M55.5203 106.221C56.9926 108.153 58.2391 110.252 59.2343 112.476L31.0016 133.597L19.2024 126.09V117.06L31.0016 124.566L55.5203 106.221Z" fill="#21A038"/>
<path d="M7.16039 125.453C7.16039 125.048 7.17012 124.645 7.1896 124.245L0.0389437 123.889C0.0146052 124.408 8.64123e-06 124.932 8.64123e-06 125.46C-0.00303376 129.59 0.79733 133.679 2.35521 137.494C3.91307 141.309 6.19778 144.774 9.07826 147.69L14.1504 142.545C11.9331 140.304 10.1741 137.64 8.97453 134.707C7.77495 131.774 7.15843 128.629 7.16039 125.453Z" fill="url(#paint0_linear_1_144)"/>
<path d="M30.9951 101.265C31.3941 101.265 31.7907 101.28 32.185 101.3L32.5428 94.0404C32.0302 94.0157 31.5142 94.0034 30.9951 94.0034C26.924 93.9983 22.8924 94.8094 19.1313 96.3901C15.3701 97.9707 11.9537 100.29 9.07816 103.214L14.1503 108.362C16.3587 106.111 18.9838 104.325 21.8747 103.107C24.7655 101.889 27.8649 101.263 30.9951 101.265Z" fill="url(#paint1_linear_1_144)"/>
<path d="M30.995 149.642C30.596 149.642 30.1992 149.642 29.8026 149.61L29.4448 156.867C29.9591 156.893 30.4759 156.907 30.995 156.907C35.0643 156.911 39.0941 156.099 42.8532 154.518C46.6123 152.937 50.0265 150.618 52.8999 147.693L47.8374 142.548C45.6286 144.798 43.0038 146.583 40.1135 147.8C37.2232 149.018 34.1244 149.644 30.995 149.642Z" fill="url(#paint2_linear_1_144)"/>
<path d="M44.4302 105.486L50.4563 100.978C44.9483 96.4514 38.0729 93.9874 30.9854 94V101.264C35.7847 101.258 40.4727 102.73 44.4302 105.486Z" fill="url(#paint3_linear_1_144)"/>
<path d="M61.988 125.453C61.9918 123.564 61.8289 121.677 61.5011 119.817L54.83 124.806C54.83 125.021 54.83 125.236 54.83 125.453C54.8317 128.833 54.1336 132.176 52.7812 135.264C51.4285 138.352 49.4515 141.118 46.9784 143.381L51.7902 148.778C55.0054 145.832 57.5747 142.234 59.3314 138.216C61.0884 134.197 61.9933 129.849 61.988 125.453Z" fill="#21A038"/>
<path d="M30.9952 149.643C27.6648 149.644 24.3712 148.935 21.3277 147.563C18.2843 146.19 15.5589 144.184 13.3279 141.674L8.01236 146.555C10.9146 149.819 14.4604 152.427 18.4197 154.21C22.379 155.993 26.6634 156.912 30.9952 156.907V149.643Z" fill="url(#paint4_linear_1_144)"/>
<path d="M15.012 107.526L10.2027 102.129C6.98656 105.074 4.4163 108.672 2.65864 112.69C0.900999 116.709 -0.00479195 121.057 1.90647e-05 125.453H7.16041C7.15893 122.074 7.85711 118.731 9.20967 115.643C10.5622 112.555 12.539 109.789 15.012 107.526Z" fill="url(#paint5_linear_1_144)"/>
<path d="M178.862 111.988L187.73 105.432H158.05V144.825H187.73V138.27H166.519V128.179H184.613V121.624H166.519V111.988H178.862Z" fill="#21A038"/>
<path d="M138.079 120.778H127.775V111.985H144.22L153.083 105.41H119.311V144.803H136.99C146.901 144.803 152.589 140.295 152.589 132.435C152.589 124.915 147.437 120.778 138.079 120.778ZM136.608 138.245H127.775V127.33H136.608C141.969 127.33 144.482 129.159 144.482 132.788C144.482 136.416 141.808 138.245 136.608 138.245Z" fill="#21A038"/>
<path d="M209.547 105.427H193.391V144.819H201.859V133.66H209.547C219.855 133.66 226.231 128.218 226.231 119.522C226.231 110.827 219.855 105.427 209.547 105.427ZM209.368 127.1H201.859V111.987H209.368C214.79 111.987 217.782 114.672 217.782 119.546C217.782 124.42 214.79 127.1 209.368 127.1Z" fill="#21A038"/>
<path d="M106.604 135.523C104.416 136.711 101.965 137.327 99.478 137.312C92.0331 137.312 86.6323 131.979 86.6323 124.636C86.6323 117.292 92.0331 111.947 99.478 111.947C102.163 111.902 104.792 112.719 106.981 114.279L112.904 109.902L112.504 109.616C109.049 106.568 104.432 104.954 99.1471 104.954C93.4152 104.954 88.2177 106.889 84.5068 110.409C82.6304 112.221 81.1466 114.403 80.1473 116.816C79.1482 119.23 78.6552 121.824 78.6996 124.437C78.6598 127.077 79.1505 129.698 80.1423 132.143C81.1341 134.589 82.6066 136.808 84.472 138.67C88.2002 142.33 93.3862 144.347 99.0774 144.347C105.024 144.347 110.222 142.266 113.741 138.478L108.439 134.514L106.604 135.523Z" fill="#21A038"/>
<path d="M259.808 120.778H249.508V111.985H271.643V105.41H241.039V144.803H258.694C268.604 144.803 274.293 140.295 274.293 132.435C274.316 124.915 269.165 120.778 259.808 120.778ZM258.337 138.245H249.508V127.33H258.337C263.697 127.33 266.21 129.159 266.21 132.788C266.21 136.416 263.559 138.245 258.337 138.245Z" fill="#21A038"/>
<path d="M370.567 144.746H361.982V105.353H370.567V121.899H375.24L387.858 105.353H397.588L382.621 124.093L400 144.746H388.609L375.835 129.253H370.567V144.746Z" fill="#21A038"/>
<path d="M305.483 137.26H287.322L284.244 144.91H275.108L292.141 105.517H301.275L318.032 144.91H308.562L305.483 137.26ZM302.639 130.122L296.457 114.823L290.24 130.122H302.639Z" fill="#21A038"/>
<path d="M329.59 105.517V121.966H347.355V105.517H356.207V144.91H347.355V129.387H329.59V144.91H320.738V105.517H329.59Z" fill="#21A038"/>
<defs>
<linearGradient id="paint0_linear_1_144" x1="10.5264" y1="146.784" x2="2.49548" y2="123.908" gradientUnits="userSpaceOnUse">
<stop offset="0.14" stop-color="#F1E813"/>
<stop offset="0.3" stop-color="#E6E418"/>
<stop offset="0.58" stop-color="#C9DA26"/>
<stop offset="0.89" stop-color="#A2CC39"/>
</linearGradient>
<linearGradient id="paint1_linear_1_144" x1="11.1226" y1="104.498" x2="31.3469" y2="96.9041" gradientUnits="userSpaceOnUse">
<stop offset="0.06" stop-color="#0FA7DF"/>
<stop offset="0.54" stop-color="#0098F8"/>
<stop offset="0.92" stop-color="#0290EA"/>
</linearGradient>
<linearGradient id="paint2_linear_1_144" x1="28.9727" y1="152.522" x2="51.7905" y2="147.443" gradientUnits="userSpaceOnUse">
<stop offset="0.12" stop-color="#A2CC39"/>
<stop offset="0.28" stop-color="#86C239"/>
<stop offset="0.87" stop-color="#219F38"/>
</linearGradient>
<linearGradient id="paint3_linear_1_144" x1="29.496" y1="96.433" x2="49.0259" y2="102.372" gradientUnits="userSpaceOnUse">
<stop offset="0.06" stop-color="#0290EA"/>
<stop offset="0.79" stop-color="#0C89CA"/>
</linearGradient>
<linearGradient id="paint4_linear_1_144" x1="9.80853" y1="145.671" x2="31.0881" y2="153.507" gradientUnits="userSpaceOnUse">
<stop offset="0.13" stop-color="#F1E813"/>
<stop offset="0.3" stop-color="#EAE616"/>
<stop offset="0.53" stop-color="#D8DF1F"/>
<stop offset="0.8" stop-color="#BAD52D"/>
<stop offset="0.98" stop-color="#A2CC39"/>
</linearGradient>
<linearGradient id="paint5_linear_1_144" x1="2.66751" y1="126.332" x2="11.3999" y2="103.949" gradientUnits="userSpaceOnUse">
<stop offset="0.07" stop-color="#A2CC39"/>
<stop offset="0.26" stop-color="#81C45E"/>
<stop offset="0.92" stop-color="#0FA7DF"/>
</linearGradient>
</defs>
</svg>
