<svg width="400" height="250" fill="none" xmlns="http://www.w3.org/2000/svg"><path fill-rule="evenodd" clip-rule="evenodd" d="m27.177 53-6.799 18.622h94.211L121.388 53H27.177zm-10.2 27.93-6.798 18.617h94.211l6.798-18.618H16.977zM6.798 108.857 0 127.476h94.211l6.794-18.618H6.798z" fill="#009FDF"/><mask id="a" style="mask-type:alpha" maskUnits="userSpaceOnUse" x="141" y="81" width="259" height="115"><path d="M141.347 195.36h257.891V81.287H141.347V195.36z" fill="#fff"/></mask><g mask="url(#a)"><path fill-rule="evenodd" clip-rule="evenodd" d="M200.287 134.573v.393c4.305 1.58 8.418 4.343 10.573 6.118 6.657 5.527 9.596 12.828 9.596 22.301 0 15.596-8.225 26.844-21.737 30.397-4.113 1.183-8.418 1.58-16.451 1.58h-40.921V81.287h36.226c7.441 0 12.53.393 17.033 1.576 13.122 3.554 21.737 12.634 21.737 27.038 0 7.699-2.741 14.214-7.244 18.553-1.958 1.974-4.7 4.344-8.812 6.119zm-36.226 12.038v29.999h15.666c4.696 0 9.006-.393 12.141-3.354 3.132-2.962 4.503-6.71 4.503-11.645 0-3.748-.981-7.302-2.939-9.867-3.329-4.145-7.441-5.133-14.489-5.133h-14.882zm-.197-19.737h12.728c3.915 0 5.873 0 7.831-.591 5.291-1.581 8.619-6.313 8.619-12.829 0-7.694-3.525-11.053-8.619-12.629-2.155-.592-4.306-.79-8.615-.79h-11.944v26.839zm90.663 68.488v-94.934h-32.7v-19.14h90.861l-6.461 19.14h-28.986v94.934h-22.714zm65.208 0V81.287h73.63l-6.46 19.141h-44.649v25.263h18.212c14.685 0 22.324 3.554 27.61 8.092 4.113 3.553 11.16 11.446 11.16 27.042 0 15.392-7.244 23.877-13.314 28.221-7.048 4.93-14.489 6.316-29.569 6.316h-36.62zm22.521-19.145h17.038c6.46 0 10.376-1.58 13.118-5.133 1.371-1.775 3.328-4.936 3.328-10.855 0-5.92-1.957-10.065-5.873-13.027-2.348-1.774-5.484-2.759-10.77-2.759h-16.841v31.774z" fill="#0A2973"/></g></svg>